<svg width="100" height="101" viewBox="0 0 100 101" fill="none" xmlns="http://www.w3.org/2000/svg">
<path d="M31.1286 100.11H28.8752C28.5488 100.11 28.2704 99.9951 28.0402 99.7648C27.8099 99.5346 27.6948 99.2563 27.6948 98.9299V97.8568C27.6948 97.5304 27.8099 97.252 28.0402 97.0218C28.2704 96.7915 28.5488 96.6764 28.8752 96.6764H31.1286V100.11Z" fill="black"/>
<path d="M33.3821 100.11H31.1286V96.6764H33.3821C33.7085 96.6764 33.9869 96.7915 34.2171 97.0218C34.4474 97.252 34.5625 97.5304 34.5625 97.8568V98.9299C34.5625 99.2563 34.4474 99.5346 34.2171 99.7648C33.9869 99.9951 33.7085 100.11 33.3821 100.11Z" fill="black"/>
<path d="M41.4303 97.8568C41.4303 97.5303 41.3151 97.252 41.0849 97.0218C40.8547 96.7916 40.5764 96.6764 40.2499 96.6764H39.1768C38.8505 96.6764 38.5721 96.7916 38.3419 97.0218C38.1116 97.252 37.9964 97.5303 37.9964 97.8568V98.9299C37.9964 99.2562 38.1116 99.5346 38.3418 99.7648C38.5722 99.9951 38.8505 100.11 39.1768 100.11H40.2499C40.5764 100.11 40.8547 99.9951 41.0849 99.7648C41.3152 99.5345 41.4303 99.2562 41.4303 98.9299V97.8568Z" fill="black"/>
<path d="M62.0337 100.11H59.7802C59.4538 100.11 59.1755 99.9951 58.9452 99.7648C58.715 99.5346 58.5998 99.2563 58.5998 98.9299V97.8568C58.5998 97.5304 58.7149 97.252 58.9452 97.0218C59.1755 96.7915 59.4538 96.6764 59.7802 96.6764H62.0337V100.11Z" fill="black"/>
<path d="M64.2872 100.11H62.0337V96.6764H64.2872C64.6136 96.6764 64.8919 96.7915 65.1222 97.0218C65.3524 97.252 65.4676 97.5304 65.4676 97.8568V98.9299C65.4676 99.2563 65.3524 99.5346 65.1222 99.7648C64.8919 99.9951 64.6136 100.11 64.2872 100.11Z" fill="black"/>
<path d="M44.8642 95.496C44.8642 95.8224 44.749 96.1007 44.5188 96.331C44.2886 96.5612 44.0102 96.6764 43.6838 96.6764H42.6107C42.2843 96.6764 42.006 96.5612 41.7757 96.331C41.5455 96.1007 41.4303 95.8224 41.4303 95.496V94.4229C41.4303 94.405 41.4326 94.3781 41.437 94.3424H41.4303V93.2425H44.8642V94.3424H44.8575C44.8621 94.3781 44.8642 94.405 44.8642 94.4229V95.496Z" fill="black"/>
<path d="M58.5998 95.496C58.5998 95.8224 58.4846 96.1007 58.2544 96.331C58.0241 96.5612 57.7458 96.6764 57.4194 96.6764H56.3463C56.0199 96.6764 55.7416 96.5612 55.5113 96.331C55.2811 96.1007 55.1659 95.8224 55.1659 95.496V94.4229C55.1659 94.405 55.1681 94.3781 55.1726 94.3424H55.1659V93.2425H58.5998V94.3424H58.5931C58.5976 94.3781 58.5998 94.405 58.5998 94.4229V95.496Z" fill="black"/>
<path d="M68.9015 96.6764H66.648C66.3216 96.6764 66.0432 96.5612 65.813 96.331C65.5828 96.1007 65.4676 95.8224 65.4676 95.496V94.4229C65.4676 94.0965 65.5827 93.8181 65.813 93.5879C66.0433 93.3577 66.3216 93.2425 66.648 93.2425H68.9015V96.6764Z" fill="black"/>
<path d="M71.155 96.6764H68.9015V93.2425H71.155C71.4814 93.2425 71.7597 93.3577 71.9899 93.5879C72.2202 93.8181 72.3354 94.0965 72.3354 94.4229V95.496C72.3354 95.8224 72.2202 96.1007 71.9899 96.331C71.7597 96.5612 71.4814 96.6764 71.155 96.6764Z" fill="black"/>
<path d="M44.8642 93.2425H41.4303V89.8086H44.8642V93.2425Z" fill="black"/>
<path d="M47.1177 93.2425H44.8642V89.8086H47.1177C47.4441 89.8086 47.7225 89.9238 47.9527 90.154C48.1829 90.3842 48.2981 90.6626 48.2981 90.989V92.0621C48.2981 92.3885 48.1829 92.6668 47.9527 92.8971C47.7225 93.1273 47.4441 93.2425 47.1177 93.2425Z" fill="black"/>
<path d="M55.1659 93.2425H52.9124C52.586 93.2425 52.3077 93.1273 52.0774 92.8971C51.8472 92.6668 51.732 92.3885 51.732 92.0621V89.8086H55.1659V93.2425Z" fill="black"/>
<path d="M58.5998 93.2425H55.1659V89.8086H58.5998V93.2425Z" fill="black"/>
<path d="M60.8533 93.2425H58.5998V89.8086H60.8533C61.1797 89.8086 61.458 89.9238 61.6883 90.154C61.9185 90.3842 62.0337 90.6626 62.0337 90.989V92.0621C62.0337 92.3885 61.9185 92.6668 61.6883 92.8971C61.458 93.1273 61.1797 93.2425 60.8533 93.2425Z" fill="black"/>
<path d="M31.1286 88.6282C31.1286 88.9546 31.0135 89.2329 30.7832 89.4632C30.553 89.6934 30.2746 89.8086 29.9482 89.8086H28.8752C28.5488 89.8086 28.2704 89.6934 28.0402 89.4632C27.8099 89.2329 27.6948 88.9546 27.6948 88.6282V87.5551C27.6948 87.5372 27.697 87.5103 27.7014 87.4746H27.6948V86.3747H31.1286V87.4746H31.122C31.1265 87.5103 31.1286 87.5372 31.1286 87.5551V88.6282Z" fill="black"/>
<path d="M37.9964 89.8086H35.7429C35.4165 89.8086 35.1382 89.6934 34.908 89.4632C34.6777 89.2329 34.5625 88.9546 34.5625 88.6282V86.3747H37.9964V89.8086Z" fill="black"/>
<path d="M41.4303 89.8086H37.9964V86.3747H41.4303L41.4303 89.8086Z" fill="black"/>
<path d="M44.8642 89.8086H41.4303L41.4303 86.3747H43.6838C44.0102 86.3747 44.2886 86.4899 44.5188 86.7201C44.749 86.9503 44.8642 87.2287 44.8642 87.5551V89.8086Z" fill="black"/>
<path d="M51.732 89.8086H49.4785C49.1521 89.8086 48.8738 89.6934 48.6435 89.4632C48.4133 89.2329 48.2981 88.9546 48.2981 88.6282V86.3747H51.732L51.732 89.8086Z" fill="black"/>
<path d="M55.1659 89.8086H51.732L51.732 86.3747H55.1659V89.8086Z" fill="black"/>
<path d="M58.5998 89.8086H55.1659V86.3747H58.5998V89.8086Z" fill="black"/>
<path d="M65.4676 87.5551C65.4676 87.2286 65.3524 86.9503 65.1222 86.7201C64.8919 86.4899 64.6136 86.3747 64.2872 86.3747H63.2141C62.8877 86.3747 62.6094 86.4899 62.3791 86.7201C62.1489 86.9503 62.0337 87.2286 62.0337 87.5551V88.6282C62.0337 88.9545 62.1488 89.2329 62.3791 89.4631C62.6094 89.6934 62.8877 89.8086 63.2141 89.8086H64.2872C64.6137 89.8086 64.892 89.6934 65.1222 89.4632C65.3524 89.2329 65.4676 88.9545 65.4676 88.6282V87.5551Z" fill="black"/>
<path d="M72.3354 87.5551C72.3354 87.2286 72.2202 86.9503 71.9899 86.7201C71.7597 86.4899 71.4814 86.3747 71.155 86.3747H70.0819C69.7555 86.3747 69.4772 86.4899 69.2469 86.7201C69.0166 86.9503 68.9015 87.2286 68.9015 87.5551V88.6282C68.9015 88.9545 69.0166 89.2329 69.2469 89.4631C69.4772 89.6934 69.7555 89.8086 70.0819 89.8086H71.155C71.4815 89.8086 71.7598 89.6934 71.9899 89.4632C72.2202 89.2329 72.3354 88.9545 72.3354 88.6282V87.5551Z" fill="black"/>
<path d="M31.1286 86.3747H27.6948V82.9408H31.1286V86.3747Z" fill="black"/>
<path d="M34.5625 86.3747H31.1286V82.9408H34.5625V86.3747Z" fill="black"/>
<path d="M37.9964 86.3747H34.5625V82.9408H37.9964V86.3747Z" fill="black"/>
<path d="M41.4303 86.3747H37.9964V82.9408H40.2499C40.5763 82.9408 40.8547 83.056 41.0849 83.2862C41.3152 83.5165 41.4303 83.7948 41.4303 84.1212V86.3747Z" fill="black"/>
<path d="M48.2981 86.3747H46.0446C45.7182 86.3747 45.4399 86.2595 45.2096 86.0293C44.9794 85.799 44.8642 85.5207 44.8642 85.1943V82.9408H48.2981V86.3747Z" fill="black"/>
<path d="M51.732 86.3747H48.2981V82.9408H51.732V86.3747Z" fill="black"/>
<path d="M58.5931 85.2748H58.5998V86.3747H55.1659V85.2748H55.1726C55.1681 85.239 55.1659 85.2122 55.1659 85.1943V84.1212C55.1659 83.7948 55.281 83.5165 55.5113 83.2862C55.7416 83.056 56.0199 82.9408 56.3463 82.9408H57.4194C57.7458 82.9408 58.0241 83.056 58.2544 83.2862C58.4846 83.5165 58.5998 83.7948 58.5998 84.1212V85.1943C58.5998 85.2122 58.5976 85.239 58.5931 85.2748Z" fill="black"/>
<path d="M31.1286 82.9408H27.6948V79.5069H31.1286V82.9408Z" fill="black"/>
<path d="M44.8642 82.9408H42.6107C42.2843 82.9408 42.006 82.8257 41.7757 82.5954C41.5455 82.3651 41.4303 82.0868 41.4303 81.7604V79.5069H44.8642V82.9408Z" fill="black"/>
<path d="M48.2981 82.9408H44.8642V79.5069L48.2981 79.5069V82.9408Z" fill="black"/>
<path d="M51.732 82.9408H48.2981V79.5069H51.732V82.9408Z" fill="black"/>
<path d="M53.9855 82.9408H51.732V79.5069L53.9855 79.5069C54.3119 79.5069 54.5902 79.6221 54.8205 79.8523C55.0507 80.0826 55.1659 80.3609 55.1659 80.6873V81.7604C55.1659 82.0868 55.0507 82.3651 54.8205 82.5954C54.5902 82.8256 54.3119 82.9408 53.9855 82.9408Z" fill="black"/>
<path d="M68.9015 80.6873C68.9015 80.3608 68.7863 80.0826 68.5561 79.8523C68.3258 79.6221 68.0475 79.5069 67.7211 79.5069H66.648C66.3216 79.5069 66.0433 79.6221 65.813 79.8523C65.5828 80.0826 65.4676 80.3608 65.4676 80.6873V81.7604C65.4676 82.0868 65.5827 82.3651 65.813 82.5953C66.0433 82.8256 66.3216 82.9408 66.648 82.9408H67.7211C68.0476 82.9408 68.3259 82.8257 68.5561 82.5954C68.7863 82.3651 68.9015 82.0868 68.9015 81.7604V80.6873Z" fill="black"/>
<path d="M31.1286 79.5069H27.6948V76.073H31.1286V79.5069Z" fill="black"/>
<path d="M37.9964 78.3265C37.9964 78.6529 37.8813 78.9312 37.651 79.1615C37.4208 79.3917 37.1424 79.5069 36.816 79.5069H35.7429C35.4165 79.5069 35.1382 79.3918 34.908 79.1615C34.6777 78.9312 34.5625 78.6529 34.5625 78.3265V77.2534C34.5625 77.2355 34.5648 77.2087 34.5692 77.1729H34.5625V76.073H37.9964V77.1729H37.9897C37.9943 77.2087 37.9964 77.2355 37.9964 77.2534V78.3265Z" fill="black"/>
<path d="M44.8642 79.5069H41.4303V76.073H44.8642V79.5069Z" fill="black"/>
<path d="M51.732 79.5069H48.2981V76.073H51.732V79.5069Z" fill="black"/>
<path d="M58.5998 77.2534C58.5998 76.9269 58.4846 76.6487 58.2544 76.4184C58.0241 76.1882 57.7459 76.073 57.4194 76.073H56.3463C56.0199 76.073 55.7416 76.1882 55.5114 76.4184C55.2811 76.6487 55.1659 76.9269 55.1659 77.2534V78.3265C55.1659 78.6529 55.281 78.9312 55.5113 79.1615C55.7416 79.3917 56.0199 79.5069 56.3463 79.5069H57.4194C57.7459 79.5069 58.0242 79.3918 58.2544 79.1615C58.4846 78.9312 58.5998 78.6529 58.5998 78.3265V77.2534Z" fill="black"/>
<path d="M65.4676 78.3265C65.4676 78.6529 65.3524 78.9312 65.1222 79.1615C64.8919 79.3917 64.6136 79.5069 64.2872 79.5069H63.2141C62.8877 79.5069 62.6093 79.3918 62.3791 79.1615C62.1489 78.9312 62.0337 78.6529 62.0337 78.3265V77.2534C62.0337 77.2355 62.0359 77.2087 62.0404 77.1729H62.0337V76.073H65.4676V77.1729H65.4609C65.4654 77.2087 65.4676 77.2355 65.4676 77.2534V78.3265Z" fill="black"/>
<path d="M72.3354 78.3265C72.3354 78.6529 72.2202 78.9312 71.9899 79.1615C71.7597 79.3917 71.4814 79.5069 71.155 79.5069H70.0819C69.7555 79.5069 69.4771 79.3918 69.2469 79.1615C69.0166 78.9312 68.9015 78.6529 68.9015 78.3265V77.2534C68.9015 77.2355 68.9037 77.2087 68.9082 77.1729H68.9015V76.073H72.3354V77.1729H72.3287C72.3332 77.2087 72.3354 77.2355 72.3354 77.2534V78.3265Z" fill="black"/>
<path d="M31.1286 76.073H27.6948V72.6391H31.1286V76.073Z" fill="black"/>
<path d="M37.9897 74.9731H37.9964V76.073H34.5625V74.9731H34.5692C34.5648 74.9373 34.5625 74.9105 34.5625 74.8926V73.8195C34.5625 73.4931 34.6777 73.2148 34.908 72.9845C35.1382 72.7543 35.4165 72.6391 35.7429 72.6391H36.816C37.1424 72.6391 37.4208 72.7543 37.651 72.9845C37.8813 73.2148 37.9964 73.4931 37.9964 73.8195V74.8926C37.9964 74.9105 37.9943 74.9373 37.9897 74.9731Z" fill="black"/>
<path d="M44.8575 74.9731H44.8642V76.073H41.4303V74.9731H41.437C41.4326 74.9373 41.4303 74.9105 41.4303 74.8926V73.8195C41.4303 73.4931 41.5455 73.2148 41.7757 72.9845C42.006 72.7543 42.2843 72.6391 42.6107 72.6391H43.6838C44.0102 72.6391 44.2886 72.7543 44.5188 72.9845C44.749 73.2148 44.8642 73.4931 44.8642 73.8195V74.8926C44.8642 74.9105 44.8621 74.9373 44.8575 74.9731Z" fill="black"/>
<path d="M51.732 76.073H48.2981V72.6391H51.732V76.073Z" fill="black"/>
<path d="M62.0337 76.073H59.7802C59.4538 76.073 59.1755 75.9579 58.9452 75.7276C58.715 75.4973 58.5998 75.219 58.5998 74.8926V72.6391H62.0337V76.073Z" fill="black"/>
<path d="M65.4676 76.073H62.0337V72.6391H64.2872C64.6136 72.6391 64.8919 72.7543 65.1222 72.9845C65.3524 73.2148 65.4676 73.4931 65.4676 73.8195V76.073Z" fill="black"/>
<path d="M72.3354 76.073H68.9015V72.6391H72.3354V76.073Z" fill="black"/>
<path d="M3.6575 70.3856C3.6575 70.0592 3.54229 69.7809 3.31208 69.5506C3.08184 69.3204 2.80356 69.2052 2.47709 69.2052H1.404C1.07765 69.2052 0.799295 69.3204 0.569052 69.5506C0.338775 69.7809 0.223602 70.0592 0.223602 70.3856V71.4587C0.223602 71.7851 0.338741 72.0634 0.569018 72.2937C0.799329 72.5239 1.07765 72.6391 1.404 72.6391H2.47709C2.80359 72.6391 3.08191 72.524 3.31208 72.2937C3.54232 72.0634 3.6575 71.7851 3.6575 71.4587V70.3856Z" fill="black"/>
<path d="M17.3931 70.3856C17.3931 70.0592 17.2779 69.7809 17.0477 69.5506C16.8174 69.3204 16.5391 69.2052 16.2127 69.2052H15.1396C14.8132 69.2052 14.5349 69.3204 14.3046 69.5506C14.0743 69.7809 13.9592 70.0592 13.9592 70.3856V71.4587C13.9592 71.7851 14.0743 72.0634 14.3046 72.2937C14.5349 72.5239 14.8132 72.6391 15.1396 72.6391H16.2127C16.5392 72.6391 16.8175 72.524 17.0477 72.2937C17.2779 72.0634 17.3931 71.7851 17.3931 71.4587V70.3856Z" fill="black"/>
<path d="M24.2609 72.6391H22.0074C21.681 72.6391 21.4026 72.524 21.1724 72.2937C20.9421 72.0634 20.827 71.7851 20.827 71.4587V70.3856C20.827 70.0592 20.9421 69.7809 21.1724 69.5506C21.4027 69.3204 21.681 69.2052 22.0074 69.2052H24.2609V72.6391Z" fill="black"/>
<path d="M27.6948 72.6391H24.2609V69.2052H27.6948V72.6391Z" fill="black"/>
<path d="M31.1286 72.6391H27.6948V69.2052H29.9482C30.2746 69.2052 30.553 69.3204 30.7832 69.5506C31.0135 69.7809 31.1286 70.0592 31.1286 70.3856V72.6391Z" fill="black"/>
<path d="M41.4303 70.3856C41.4303 70.0592 41.3151 69.7809 41.0849 69.5506C40.8547 69.3204 40.5764 69.2052 40.2499 69.2052H39.1768C38.8505 69.2052 38.5721 69.3204 38.3419 69.5506C38.1116 69.7809 37.9964 70.0592 37.9964 70.3856V71.4587C37.9964 71.7851 38.1116 72.0634 38.3418 72.2937C38.5722 72.5239 38.8505 72.6391 39.1768 72.6391H40.2499C40.5764 72.6391 40.8547 72.524 41.0849 72.2937C41.3152 72.0634 41.4303 71.7851 41.4303 71.4587V70.3856Z" fill="black"/>
<path d="M48.2981 72.6391H46.0446C45.7182 72.6391 45.4399 72.524 45.2096 72.2937C44.9794 72.0634 44.8642 71.7851 44.8642 71.4587V70.3856C44.8642 70.0592 44.9794 69.7809 45.2096 69.5506C45.4399 69.3204 45.7182 69.2052 46.0446 69.2052H48.2981V72.6391Z" fill="black"/>
<path d="M51.732 72.6391H48.2981V69.2052H51.732V72.6391Z" fill="black"/>
<path d="M55.1659 72.6391H51.732V69.2052H55.1659V72.6391Z" fill="black"/>
<path d="M58.5998 72.6391H55.1659V69.2052H58.5998V72.6391Z" fill="black"/>
<path d="M62.0337 72.6391H58.5998V69.2052H60.8533C61.1797 69.2052 61.458 69.3204 61.6883 69.5506C61.9185 69.7809 62.0337 70.0592 62.0337 70.3856V72.6391Z" fill="black"/>
<path d="M72.3354 72.6391H68.9015V69.2052H72.3354V72.6391Z" fill="black"/>
<path d="M75.7693 72.6391H72.3354V69.2052H75.7693V72.6391Z" fill="black"/>
<path d="M79.2032 72.6391H75.7693V69.2052H79.2032V72.6391Z" fill="black"/>
<path d="M82.637 72.6391H79.2032V69.2052H82.637V72.6391Z" fill="black"/>
<path d="M86.0709 72.6391H82.637V69.2052H86.0709V72.6391Z" fill="black"/>
<path d="M89.5048 71.4587C89.5048 71.7851 89.3897 72.0635 89.1594 72.2937C88.9292 72.5239 88.6508 72.6391 88.3244 72.6391H86.0709V69.2052H89.5048V71.4587Z" fill="black"/>
<path d="M99.8065 71.4587C99.8065 71.7851 99.6913 72.0635 99.4611 72.2937C99.2309 72.5239 98.9525 72.6391 98.6261 72.6391H97.553C97.2266 72.6391 96.9483 72.524 96.718 72.2937C96.4878 72.0634 96.3726 71.7851 96.3726 71.4587V70.3856C96.3726 70.3677 96.3748 70.3409 96.3793 70.3051H96.3726V69.2052H99.8065V70.3051H99.7998C99.8044 70.3409 99.8065 70.3677 99.8065 70.3856V71.4587Z" fill="black"/>
<path d="M7.09139 66.9517C7.09139 66.6253 6.97618 66.347 6.74597 66.1167C6.51573 65.8865 6.23745 65.7713 5.91099 65.7713H4.8379C4.51154 65.7713 4.23319 65.8865 4.00295 66.1167C3.77267 66.347 3.6575 66.6253 3.6575 66.9517V68.0248C3.6575 68.3512 3.77263 68.6295 4.00291 68.8598C4.23322 69.09 4.51154 69.2052 4.8379 69.2052H5.91099C6.23748 69.2052 6.5158 69.0901 6.74597 68.8598C6.97622 68.6295 7.09139 68.3512 7.09139 68.0248V66.9517Z" fill="black"/>
<path d="M44.8642 68.0248C44.8642 68.3512 44.749 68.6296 44.5188 68.8598C44.2886 69.09 44.0102 69.2052 43.6838 69.2052H42.6107C42.2843 69.2052 42.006 69.0901 41.7757 68.8598C41.5455 68.6295 41.4303 68.3512 41.4303 68.0248V66.9517C41.4303 66.9338 41.4326 66.907 41.437 66.8712H41.4303V65.7713H44.8642V66.8712H44.8575C44.8621 66.907 44.8642 66.9338 44.8642 66.9517V68.0248Z" fill="black"/>
<path d="M72.3354 69.2052H68.9015V65.7713H72.3354V69.2052Z" fill="black"/>
<path d="M79.2032 69.2052H75.7693L75.7693 66.9517C75.7693 66.6253 75.8844 66.347 76.1147 66.1167C76.345 65.8865 76.6233 65.7713 76.9497 65.7713H79.2032V69.2052Z" fill="black"/>
<path d="M82.637 69.2052H79.2032V65.7713H82.637V69.2052Z" fill="black"/>
<path d="M86.0709 69.2052H82.637V65.7713H86.0709V69.2052Z" fill="black"/>
<path d="M89.5048 69.2052H86.0709V65.7713H89.5048V69.2052Z" fill="black"/>
<path d="M92.9387 69.2052H89.5048V65.7713H92.9387V69.2052Z" fill="black"/>
<path d="M96.3726 69.2052H92.9387V65.7713H96.3726V69.2052Z" fill="black"/>
<path d="M99.8065 69.2052H96.3726V65.7713H99.8065V69.2052Z" fill="black"/>
<path d="M17.3931 64.5909C17.3931 64.9173 17.2779 65.1957 17.0477 65.4259C16.8174 65.6562 16.5391 65.7713 16.2127 65.7713H15.1396C14.8132 65.7713 14.5348 65.6562 14.3046 65.4259C14.0744 65.1956 13.9592 64.9173 13.9592 64.5909V63.5178C13.9592 63.4999 13.9614 63.4731 13.9659 63.4373H13.9592V62.3374H17.3931V63.4373H17.3864C17.3909 63.4731 17.3931 63.4999 17.3931 63.5178V64.5909Z" fill="black"/>
<path d="M24.2609 63.5178C24.2609 63.1914 24.1456 62.9131 23.9154 62.6828C23.6852 62.4526 23.4069 62.3374 23.0805 62.3374H22.0074C21.681 62.3374 21.4027 62.4526 21.1724 62.6828C20.9421 62.9131 20.827 63.1914 20.827 63.5178V64.5909C20.827 64.9173 20.9421 65.1956 21.1724 65.4259C21.4027 65.6562 21.681 65.7713 22.0074 65.7713H23.0805C23.407 65.7713 23.6853 65.6562 23.9154 65.4259C24.1457 65.1956 24.2609 64.9173 24.2609 64.5909V63.5178Z" fill="black"/>
<path d="M34.5625 63.5178C34.5625 63.1914 34.4473 62.9131 34.2171 62.6828C33.9869 62.4526 33.7086 62.3374 33.3821 62.3374H32.309C31.9827 62.3374 31.7043 62.4526 31.4741 62.6828C31.2438 62.9131 31.1286 63.1914 31.1286 63.5178V64.5909C31.1286 64.9173 31.2438 65.1956 31.4741 65.4259C31.7044 65.6562 31.9827 65.7713 32.309 65.7713H33.3821C33.7086 65.7713 33.9869 65.6562 34.2171 65.4259C34.4474 65.1956 34.5625 64.9173 34.5625 64.5909V63.5178Z" fill="black"/>
<path d="M44.8642 65.7713H41.4303V63.5178C41.4303 63.1914 41.5455 62.9131 41.7757 62.6828C42.006 62.4526 42.2843 62.3374 42.6107 62.3374H44.8642V65.7713Z" fill="black"/>
<path d="M48.2981 65.7713L44.8642 65.7713V62.3374H48.2981V65.7713Z" fill="black"/>
<path d="M51.732 65.7713H48.2981V62.3374H51.732V65.7713Z" fill="black"/>
<path d="M55.1659 64.5909C55.1659 64.9173 55.0507 65.1957 54.8205 65.4259C54.5902 65.6562 54.3119 65.7713 53.9855 65.7713H51.732V62.3374H55.1659V64.5909Z" fill="black"/>
<path d="M72.3354 65.7713H68.9015V62.3374H72.3354V65.7713Z" fill="black"/>
<path d="M74.5889 65.7713L72.3354 65.7713V62.3374H74.5889C74.9153 62.3374 75.1936 62.4526 75.4238 62.6828C75.6541 62.9131 75.7693 63.1914 75.7693 63.5178V64.5909C75.7693 64.9173 75.6541 65.1957 75.4238 65.4259C75.1936 65.6562 74.9153 65.7713 74.5889 65.7713Z" fill="black"/>
<path d="M86.0709 65.7713H82.637V62.3374H86.0709V65.7713Z" fill="black"/>
<path d="M99.8065 65.7713H96.3726V62.3374H99.8065V65.7713Z" fill="black"/>
<path d="M3.6575 61.157C3.6575 61.4834 3.54232 61.7618 3.31208 61.992C3.08184 62.2223 2.80349 62.3374 2.47709 62.3374H1.404C1.07761 62.3374 0.79926 62.2223 0.569018 61.992C0.338775 61.7617 0.223602 61.4834 0.223602 61.157V60.0839C0.223602 60.066 0.225834 60.0392 0.230298 60.0034H0.223602V58.9035H3.6575V60.0034H3.6508C3.65533 60.0392 3.6575 60.066 3.6575 60.0839V61.157Z" fill="black"/>
<path d="M10.5253 61.157C10.5253 61.4834 10.4101 61.7618 10.1799 61.992C9.94963 62.2223 9.67127 62.3374 9.34488 62.3374H8.27179C7.9454 62.3374 7.66705 62.2223 7.4368 61.992C7.20656 61.7617 7.09139 61.4834 7.09139 61.157V60.0839C7.09139 60.066 7.09362 60.0392 7.09809 60.0034H7.09139V58.9035H10.5253V60.0034H10.5186C10.5231 60.0392 10.5253 60.066 10.5253 60.0839V61.157Z" fill="black"/>
<path d="M17.3931 62.3374H13.9592V60.0839C13.9592 59.7575 14.0743 59.4792 14.3046 59.2489C14.5349 59.0187 14.8132 58.9035 15.1396 58.9035H17.3931V62.3374Z" fill="black"/>
<path d="M20.827 61.157C20.827 61.4834 20.7118 61.7618 20.4815 61.992C20.2513 62.2223 19.973 62.3374 19.6466 62.3374H17.3931V58.9035H20.827V61.157Z" fill="black"/>
<path d="M31.1286 61.157C31.1286 61.4834 31.0135 61.7618 30.7832 61.992C30.553 62.2223 30.2746 62.3374 29.9482 62.3374H28.8752C28.5488 62.3374 28.2704 62.2223 28.0402 61.992C27.8099 61.7617 27.6948 61.4834 27.6948 61.157V60.0839C27.6948 60.066 27.697 60.0392 27.7014 60.0034H27.6948V58.9035H31.1286V60.0034H31.122C31.1265 60.0392 31.1286 60.066 31.1286 60.0839V61.157Z" fill="black"/>
<path d="M48.2981 62.3374H44.8642V58.9035H48.2981V62.3374Z" fill="black"/>
<path d="M55.1659 62.3374H51.732L51.732 60.0839C51.732 59.7575 51.8471 59.4792 52.0774 59.2489C52.3077 59.0187 52.586 58.9035 52.9124 58.9035H55.1659V62.3374Z" fill="black"/>
<path d="M58.5998 62.3374H55.1659V58.9035L58.5998 58.9035V62.3374Z" fill="black"/>
<path d="M62.0337 62.3374H58.5998V58.9035H62.0337V62.3374Z" fill="black"/>
<path d="M65.4676 62.3374H62.0337V58.9035H65.4676V62.3374Z" fill="black"/>
<path d="M68.9015 62.3374H65.4676V58.9035H68.9015V62.3374Z" fill="black"/>
<path d="M72.3354 62.3374H68.9015V58.9035H72.3354V62.3374Z" fill="black"/>
<path d="M79.2032 62.3374H76.9497C76.6233 62.3374 76.3449 62.2223 76.1147 61.992C75.8844 61.7617 75.7693 61.4834 75.7693 61.157V60.0839C75.7693 59.7575 75.8844 59.4792 76.1147 59.2489C76.345 59.0187 76.6233 58.9035 76.9497 58.9035H79.2032V62.3374Z" fill="black"/>
<path d="M82.637 62.3374H79.2032V58.9035L82.637 58.9035V62.3374Z" fill="black"/>
<path d="M86.0709 62.3374H82.637V58.9035H86.0709V62.3374Z" fill="black"/>
<path d="M88.3244 62.3374H86.0709V58.9035L88.3244 58.9035C88.6508 58.9035 88.9292 59.0187 89.1594 59.2489C89.3897 59.4792 89.5048 59.7575 89.5048 60.0839V61.157C89.5048 61.4834 89.3897 61.7618 89.1594 61.992C88.9292 62.2223 88.6508 62.3374 88.3244 62.3374Z" fill="black"/>
<path d="M96.3726 62.3374H94.1191C93.7927 62.3374 93.5144 62.2223 93.2841 61.992C93.0539 61.7617 92.9387 61.4834 92.9387 61.157V58.9035H96.3726V62.3374Z" fill="black"/>
<path d="M99.8065 62.3374H96.3726V58.9035H98.6261C98.9525 58.9035 99.2309 59.0187 99.4611 59.2489C99.6913 59.4792 99.8065 59.7575 99.8065 60.0839V62.3374Z" fill="black"/>
<path d="M3.6575 58.9035H0.223602V56.65C0.223602 56.3237 0.338741 56.0453 0.569018 55.8151C0.799295 55.5848 1.07761 55.4696 1.404 55.4696H3.6575V58.9035Z" fill="black"/>
<path d="M7.09139 58.9035H3.6575V55.4696L7.09139 55.4696V58.9035Z" fill="black"/>
<path d="M10.5253 58.9035H7.09139V55.4696H10.5253V58.9035Z" fill="black"/>
<path d="M12.7788 58.9035H10.5253V55.4696L12.7788 55.4696C13.1052 55.4696 13.3835 55.5848 13.6138 55.8151C13.844 56.0453 13.9592 56.3237 13.9592 56.65V57.7231C13.9592 58.0495 13.844 58.3279 13.6138 58.5581C13.3835 58.7884 13.1052 58.9035 12.7788 58.9035Z" fill="black"/>
<path d="M20.827 58.9035H17.3931V55.4696H20.827V58.9035Z" fill="black"/>
<path d="M24.2609 58.9035H20.827V55.4696H24.2609V58.9035Z" fill="black"/>
<path d="M27.6948 58.9035H24.2609V55.4696H27.6948V58.9035Z" fill="black"/>
<path d="M31.1286 58.9035H27.6948V55.4696H31.1286V58.9035Z" fill="black"/>
<path d="M37.9964 57.7231C37.9964 58.0495 37.8813 58.3279 37.651 58.5581C37.4208 58.7884 37.1424 58.9035 36.816 58.9035H35.7429C35.4165 58.9035 35.1382 58.7884 34.908 58.5581C34.6777 58.3278 34.5625 58.0495 34.5625 57.7231V56.65C34.5625 56.6322 34.5648 56.6053 34.5692 56.5696H34.5625V55.4696H37.9964V56.5696H37.9897C37.9943 56.6053 37.9964 56.6321 37.9964 56.65V57.7231Z" fill="black"/>
<path d="M44.8642 58.9035L42.6107 58.9035C42.2843 58.9035 42.006 58.7884 41.7757 58.5581C41.5455 58.3278 41.4303 58.0495 41.4303 57.7231V56.65C41.4303 56.3237 41.5455 56.0453 41.7757 55.8151C42.006 55.5848 42.2843 55.4696 42.6107 55.4696H44.8642V58.9035Z" fill="black"/>
<path d="M48.2981 58.9035H44.8642V55.4696L48.2981 55.4696V58.9035Z" fill="black"/>
<path d="M62.0337 58.9035H58.5998V55.4696H62.0337V58.9035Z" fill="black"/>
<path d="M65.4676 58.9035H62.0337V55.4696H65.4676V58.9035Z" fill="black"/>
<path d="M72.3354 58.9035H68.9015V56.65C68.9015 56.3237 69.0166 56.0453 69.2469 55.8151C69.4772 55.5848 69.7555 55.4696 70.0819 55.4696H72.3354V58.9035Z" fill="black"/>
<path d="M74.5889 58.9035L72.3354 58.9035V55.4696H74.5889C74.9153 55.4696 75.1936 55.5848 75.4238 55.8151C75.6541 56.0453 75.7693 56.3237 75.7693 56.65V57.7231C75.7693 58.0495 75.6541 58.3279 75.4238 58.5581C75.1936 58.7884 74.9153 58.9035 74.5889 58.9035Z" fill="black"/>
<path d="M96.3726 58.9035H92.9387V55.4696H96.3726V58.9035Z" fill="black"/>
<path d="M7.09139 55.4696L3.6575 55.4696V52.0357H7.09139V55.4696Z" fill="black"/>
<path d="M10.5253 55.4696H7.09139V52.0357H9.34488C9.67127 52.0357 9.94963 52.1509 10.1799 52.3812C10.4101 52.6114 10.5253 52.8898 10.5253 53.2162V55.4696Z" fill="black"/>
<path d="M20.8203 54.3697H20.827V55.4696H17.3931V54.3697H17.3998C17.3953 54.334 17.3931 54.3071 17.3931 54.2892V53.2162C17.3931 52.8898 17.5082 52.6114 17.7385 52.3812C17.9688 52.1509 18.2471 52.0357 18.5735 52.0357H19.6466C19.973 52.0357 20.2513 52.1509 20.4815 52.3812C20.7118 52.6114 20.827 52.8898 20.827 53.2162V54.2892C20.827 54.3071 20.8248 54.334 20.8203 54.3697Z" fill="black"/>
<path d="M31.1286 55.4696H27.6948V52.0357H31.1286V55.4696Z" fill="black"/>
<path d="M37.9897 54.3697H37.9964V55.4696H34.5625V54.3697H34.5692C34.5648 54.334 34.5625 54.3071 34.5625 54.2892V53.2162C34.5625 52.8898 34.6777 52.6114 34.908 52.3812C35.1382 52.1509 35.4165 52.0357 35.7429 52.0357H36.816C37.1424 52.0357 37.4208 52.1509 37.651 52.3812C37.8813 52.6114 37.9964 52.8898 37.9964 53.2162V54.2892C37.9964 54.3071 37.9943 54.334 37.9897 54.3697Z" fill="black"/>
<path d="M48.2981 55.4696L44.8642 55.4696V53.2162C44.8642 52.8898 44.9794 52.6114 45.2096 52.3812C45.4399 52.1509 45.7182 52.0357 46.0446 52.0357H48.2981V55.4696Z" fill="black"/>
<path d="M50.5516 55.4696H48.2981V52.0357H50.5516C50.878 52.0357 51.1563 52.1509 51.3866 52.3812C51.6168 52.6114 51.732 52.8898 51.732 53.2162V54.2892C51.732 54.6156 51.6168 54.894 51.3866 55.1242C51.1563 55.3545 50.878 55.4696 50.5516 55.4696Z" fill="black"/>
<path d="M58.5998 55.4696H56.3463C56.0199 55.4696 55.7416 55.3545 55.5113 55.1242C55.2811 54.8939 55.1659 54.6156 55.1659 54.2892V52.0357H58.5998V55.4696Z" fill="black"/>
<path d="M62.0337 55.4696H58.5998V52.0357H62.0337V55.4696Z" fill="black"/>
<path d="M65.4676 55.4696H62.0337V52.0357H65.4676V55.4696Z" fill="black"/>
<path d="M79.2032 55.4696H76.9497C76.6233 55.4696 76.3449 55.3545 76.1147 55.1242C75.8844 54.8939 75.7693 54.6156 75.7693 54.2892V53.2162C75.7693 52.8898 75.8844 52.6114 76.1147 52.3812C76.345 52.1509 76.6233 52.0357 76.9497 52.0357H79.2032V55.4696Z" fill="black"/>
<path d="M82.637 55.4696H79.2032V52.0357H82.637V55.4696Z" fill="black"/>
<path d="M86.0709 55.4696H82.637V52.0357H86.0709V55.4696Z" fill="black"/>
<path d="M89.5048 55.4696H86.0709V52.0357H89.5048V55.4696Z" fill="black"/>
<path d="M92.9387 55.4696H89.5048V52.0357H92.9387V55.4696Z" fill="black"/>
<path d="M96.3726 55.4696H92.9387V52.0357H96.3726V55.4696Z" fill="black"/>
<path d="M99.8065 54.2892C99.8065 54.6156 99.6913 54.894 99.4611 55.1242C99.2309 55.3545 98.9525 55.4696 98.6261 55.4696H96.3726V52.0357H99.8065V54.2892Z" fill="black"/>
<path d="M7.08469 50.9358H7.09139V52.0357H3.6575V50.9358H3.66419C3.65973 50.9001 3.6575 50.8732 3.6575 50.8554V49.7823C3.6575 49.4559 3.77263 49.1775 4.00291 48.9473C4.23319 48.717 4.51151 48.6019 4.8379 48.6019H5.91099C6.23738 48.6019 6.51573 48.717 6.74597 48.9473C6.97622 49.1775 7.09139 49.4559 7.09139 49.7823V50.8554C7.09139 50.8732 7.08923 50.9001 7.08469 50.9358Z" fill="black"/>
<path d="M24.2609 49.7823C24.2609 49.4558 24.1456 49.1775 23.9154 48.9473C23.6852 48.7171 23.4069 48.6019 23.0805 48.6019H22.0074C21.681 48.6019 21.4027 48.7171 21.1724 48.9473C20.9421 49.1775 20.827 49.4558 20.827 49.7823V50.8554C20.827 51.1817 20.9421 51.4601 21.1724 51.6903C21.4027 51.9206 21.681 52.0357 22.0074 52.0357H23.0805C23.407 52.0357 23.6853 51.9206 23.9154 51.6903C24.1457 51.46 24.2609 51.1817 24.2609 50.8554V49.7823Z" fill="black"/>
<path d="M31.1286 52.0357H27.6948V48.6019H31.1286V52.0357Z" fill="black"/>
<path d="M44.8642 50.8554C44.8642 51.1817 44.749 51.4601 44.5188 51.6903C44.2886 51.9206 44.0102 52.0357 43.6838 52.0357H42.6107C42.2843 52.0357 42.006 51.9206 41.7757 51.6903C41.5455 51.4601 41.4303 51.1817 41.4303 50.8554V49.7823C41.4303 49.7644 41.4326 49.7375 41.437 49.7018H41.4303V48.6019H44.8642V49.7018H44.8575C44.8621 49.7375 44.8642 49.7643 44.8642 49.7823V50.8554Z" fill="black"/>
<path d="M58.5931 50.9358H58.5998V52.0357H55.1659V50.9358H55.1726C55.1681 50.9001 55.1659 50.8732 55.1659 50.8554V49.7823C55.1659 49.4559 55.281 49.1775 55.5113 48.9473C55.7416 48.717 56.0199 48.6019 56.3463 48.6019H57.4194C57.7458 48.6019 58.0241 48.717 58.2544 48.9473C58.4846 49.1775 58.5998 49.4559 58.5998 49.7823V50.8554C58.5998 50.8732 58.5976 50.9001 58.5931 50.9358Z" fill="black"/>
<path d="M65.4609 50.9358H65.4676V52.0357H62.0337V50.9358H62.0404C62.0359 50.9001 62.0337 50.8732 62.0337 50.8554V49.7823C62.0337 49.4559 62.1488 49.1775 62.3791 48.9473C62.6094 48.717 62.8877 48.6019 63.2141 48.6019H64.2872C64.6136 48.6019 64.8919 48.717 65.1222 48.9473C65.3524 49.1775 65.4676 49.4559 65.4676 49.7823V50.8554C65.4676 50.8732 65.4654 50.9001 65.4609 50.9358Z" fill="black"/>
<path d="M82.637 52.0357H79.2032V48.6019H82.637V52.0357Z" fill="black"/>
<path d="M86.0709 52.0357H82.637V48.6019H86.0709V52.0357Z" fill="black"/>
<path d="M89.5048 52.0357H86.0709V48.6019H89.5048V52.0357Z" fill="black"/>
<path d="M92.9387 52.0357H89.5048V48.6019H91.7583C92.0847 48.6019 92.3631 48.717 92.5933 48.9473C92.8236 49.1775 92.9387 49.4559 92.9387 49.7823V52.0357Z" fill="black"/>
<path d="M99.8065 52.0357H96.3726V48.6019H99.8065V52.0357Z" fill="black"/>
<path d="M13.9592 48.6019H11.7057C11.3793 48.6019 11.1009 48.4867 10.8707 48.2564C10.6405 48.0262 10.5253 47.7478 10.5253 47.4215V45.168H13.9592V48.6019Z" fill="black"/>
<path d="M17.3931 47.4215C17.3931 47.7478 17.2779 48.0262 17.0477 48.2564C16.8174 48.4867 16.5391 48.6019 16.2127 48.6019H13.9592V45.168H17.3931V47.4215Z" fill="black"/>
<path d="M27.6948 48.6019L25.4413 48.6019C25.1149 48.6019 24.8365 48.4867 24.6063 48.2564C24.376 48.0262 24.2609 47.7478 24.2609 47.4215V45.168H27.6948V48.6019Z" fill="black"/>
<path d="M31.1286 48.6019H27.6948V45.168H31.1286V48.6019Z" fill="black"/>
<path d="M33.3821 48.6019L31.1286 48.6019V45.168H33.3821C33.7085 45.168 33.9869 45.2831 34.2171 45.5134C34.4474 45.7436 34.5625 46.022 34.5625 46.3484V47.4215C34.5625 47.7478 34.4474 48.0262 34.2171 48.2564C33.9869 48.4867 33.7085 48.6019 33.3821 48.6019Z" fill="black"/>
<path d="M44.8642 48.6019H41.4303V45.168H44.8642V48.6019Z" fill="black"/>
<path d="M51.732 47.4215C51.732 47.7478 51.6168 48.0262 51.3866 48.2564C51.1563 48.4867 50.878 48.6019 50.5516 48.6019H49.4785C49.1521 48.6019 48.8738 48.4867 48.6435 48.2564C48.4133 48.0262 48.2981 47.7478 48.2981 47.4215V46.3484C48.2981 46.3305 48.3003 46.3036 48.3048 46.2679H48.2981V45.168H51.732V46.2679H51.7253C51.7298 46.3036 51.732 46.3304 51.732 46.3484V47.4215Z" fill="black"/>
<path d="M62.0337 47.4215C62.0337 47.7478 61.9185 48.0262 61.6883 48.2564C61.458 48.4867 61.1797 48.6019 60.8533 48.6019H59.7802C59.4538 48.6019 59.1755 48.4867 58.9452 48.2564C58.715 48.0262 58.5998 47.7478 58.5998 47.4215V46.3484C58.5998 46.3305 58.602 46.3036 58.6065 46.2679H58.5998V45.168H62.0337V46.2679H62.027C62.0315 46.3036 62.0337 46.3304 62.0337 46.3484V47.4215Z" fill="black"/>
<path d="M72.3354 48.6019H70.0819C69.7555 48.6019 69.4771 48.4867 69.2469 48.2564C69.0166 48.0262 68.9015 47.7478 68.9015 47.4215V46.3484C68.9015 46.022 69.0166 45.7436 69.2469 45.5134C69.4772 45.2831 69.7555 45.168 70.0819 45.168H72.3354V48.6019Z" fill="black"/>
<path d="M75.7693 47.4215C75.7693 47.7478 75.6541 48.0262 75.4238 48.2564C75.1936 48.4867 74.9153 48.6019 74.5889 48.6019H72.3354V45.168H75.7693V47.4215Z" fill="black"/>
<path d="M82.637 48.6019H79.2032V45.168H82.637V48.6019Z" fill="black"/>
<path d="M96.3726 48.6019L94.1191 48.6019C93.7927 48.6019 93.5144 48.4867 93.2841 48.2564C93.0539 48.0262 92.9387 47.7478 92.9387 47.4215V45.168H96.3726V48.6019Z" fill="black"/>
<path d="M99.8065 48.6019H96.3726V45.168H98.6261C98.9525 45.168 99.2309 45.2831 99.4611 45.5134C99.6913 45.7436 99.8065 46.022 99.8065 46.3484V48.6019Z" fill="black"/>
<path d="M7.09139 45.168H4.8379C4.51151 45.168 4.23315 45.0528 4.00291 44.8225C3.77267 44.5923 3.6575 44.314 3.6575 43.9876V42.9145C3.6575 42.5881 3.77263 42.3097 4.00291 42.0795C4.23319 41.8492 4.51151 41.7341 4.8379 41.7341H7.09139V45.168Z" fill="black"/>
<path d="M10.5253 45.168H7.09139V41.7341H10.5253L10.5253 45.168Z" fill="black"/>
<path d="M13.9592 45.168H10.5253L10.5253 41.7341H13.9592V45.168Z" fill="black"/>
<path d="M17.3931 45.168H13.9592V41.7341H17.3931V45.168Z" fill="black"/>
<path d="M20.827 45.168H17.3931V41.7341H20.827V45.168Z" fill="black"/>
<path d="M24.2609 45.168H20.827V41.7341H24.2609V45.168Z" fill="black"/>
<path d="M27.6948 45.168H24.2609V41.7341H27.6948V45.168Z" fill="black"/>
<path d="M31.1286 45.168H27.6948V41.7341H29.9482C30.2746 41.7341 30.553 41.8492 30.7832 42.0795C31.0135 42.3097 31.1286 42.5881 31.1286 42.9145V45.168Z" fill="black"/>
<path d="M37.9964 45.168H35.7429C35.4165 45.168 35.1382 45.0528 34.908 44.8225C34.6777 44.5923 34.5625 44.314 34.5625 43.9876V41.7341H37.9964V45.168Z" fill="black"/>
<path d="M41.4303 45.168H37.9964V41.7341H41.4303L41.4303 45.168Z" fill="black"/>
<path d="M44.8642 45.168H41.4303L41.4303 41.7341H44.8642V45.168Z" fill="black"/>
<path d="M48.2981 45.168H44.8642V41.7341H48.2981V45.168Z" fill="black"/>
<path d="M51.732 45.168H48.2981V41.7341H51.732V45.168Z" fill="black"/>
<path d="M55.1659 45.168H51.732V41.7341H55.1659V45.168Z" fill="black"/>
<path d="M58.5998 45.168H55.1659V41.7341H58.5998V45.168Z" fill="black"/>
<path d="M62.0337 45.168H58.5998V41.7341H62.0337V45.168Z" fill="black"/>
<path d="M68.9015 42.9145C68.9015 42.588 68.7863 42.3097 68.5561 42.0795C68.3258 41.8493 68.0475 41.7341 67.7211 41.7341H66.648C66.3216 41.7341 66.0433 41.8493 65.813 42.0795C65.5828 42.3097 65.4676 42.588 65.4676 42.9145V43.9876C65.4676 44.3139 65.5827 44.5923 65.813 44.8225C66.0433 45.0528 66.3216 45.168 66.648 45.168H67.7211C68.0476 45.168 68.3259 45.0528 68.5561 44.8225C68.7863 44.5922 68.9015 44.3139 68.9015 43.9876V42.9145Z" fill="black"/>
<path d="M75.7626 44.0681H75.7693V45.168H72.3354V44.0681H72.3421C72.3376 44.0323 72.3354 44.0054 72.3354 43.9876V42.9145C72.3354 42.5881 72.4505 42.3097 72.6808 42.0795C72.9111 41.8492 73.1894 41.7341 73.5158 41.7341H74.5889C74.9153 41.7341 75.1936 41.8492 75.4238 42.0795C75.6541 42.3097 75.7693 42.5881 75.7693 42.9145V43.9876C75.7693 44.0054 75.7671 44.0323 75.7626 44.0681Z" fill="black"/>
<path d="M82.637 45.168H79.2032V41.7341H82.637V45.168Z" fill="black"/>
<path d="M96.3726 45.168H92.9387V41.7341H96.3726V45.168Z" fill="black"/>
<path d="M3.6575 39.4806C3.6575 39.1541 3.54229 38.8758 3.31208 38.6456C3.08184 38.4154 2.80356 38.3002 2.47709 38.3002H1.404C1.07765 38.3002 0.799295 38.4154 0.569052 38.6456C0.338775 38.8758 0.223602 39.1541 0.223602 39.4806V40.5537C0.223602 40.88 0.338741 41.1584 0.569018 41.3886C0.799329 41.6189 1.07765 41.7341 1.404 41.7341H2.47709C2.80359 41.7341 3.08191 41.6189 3.31208 41.3887C3.54232 41.1583 3.6575 40.88 3.6575 40.5537V39.4806Z" fill="black"/>
<path d="M10.5253 41.7341H7.09139V38.3002H10.5253V41.7341Z" fill="black"/>
<path d="M13.9592 41.7341H10.5253V38.3002H13.9592V41.7341Z" fill="black"/>
<path d="M20.8203 40.6342H20.827V41.7341H17.3931V40.6342H17.3998C17.3953 40.5984 17.3931 40.5716 17.3931 40.5537V39.4806C17.3931 39.1542 17.5082 38.8758 17.7385 38.6456C17.9688 38.4153 18.2471 38.3002 18.5735 38.3002H19.6466C19.973 38.3002 20.2513 38.4153 20.4815 38.6456C20.7118 38.8758 20.827 39.1542 20.827 39.4806V40.5537C20.827 40.5716 20.8248 40.5984 20.8203 40.6342Z" fill="black"/>
<path d="M34.5625 41.7341L32.309 41.7341C31.9827 41.7341 31.7043 41.6189 31.4741 41.3887C31.2438 41.1584 31.1286 40.8801 31.1286 40.5537V38.3002H34.5625V41.7341Z" fill="black"/>
<path d="M37.9964 41.7341H34.5625V38.3002H37.9964V41.7341Z" fill="black"/>
<path d="M41.4303 41.7341H37.9964V38.3002H41.4303V41.7341Z" fill="black"/>
<path d="M44.8642 41.7341H41.4303V38.3002H44.8642V41.7341Z" fill="black"/>
<path d="M62.0337 41.7341H58.5998V38.3002H62.0337V41.7341Z" fill="black"/>
<path d="M64.2872 41.7341L62.0337 41.7341V38.3002H64.2872C64.6136 38.3002 64.8919 38.4153 65.1222 38.6456C65.3524 38.8758 65.4676 39.1542 65.4676 39.4806V40.5537C65.4676 40.8801 65.3524 41.1584 65.1222 41.3887C64.8919 41.6189 64.6136 41.7341 64.2872 41.7341Z" fill="black"/>
<path d="M79.2032 41.7341L76.9497 41.7341C76.6233 41.7341 76.3449 41.6189 76.1147 41.3887C75.8844 41.1584 75.7693 40.8801 75.7693 40.5537V38.3002H79.2032V41.7341Z" fill="black"/>
<path d="M82.637 41.7341H79.2032V38.3002H82.637V41.7341Z" fill="black"/>
<path d="M86.0709 41.7341L82.637 41.7341V38.3002H86.0709V41.7341Z" fill="black"/>
<path d="M88.3244 41.7341H86.0709V38.3002H88.3244C88.6508 38.3002 88.9292 38.4153 89.1594 38.6456C89.3897 38.8758 89.5048 39.1542 89.5048 39.4806V40.5537C89.5048 40.8801 89.3897 41.1584 89.1594 41.3887C88.9292 41.6189 88.6508 41.7341 88.3244 41.7341Z" fill="black"/>
<path d="M96.3726 41.7341H92.9387V39.4806C92.9387 39.1542 93.0539 38.8758 93.2841 38.6456C93.5144 38.4153 93.7927 38.3002 94.1191 38.3002H96.3726V41.7341Z" fill="black"/>
<path d="M99.8065 40.5537C99.8065 40.8801 99.6913 41.1584 99.4611 41.3887C99.2309 41.6189 98.9525 41.7341 98.6261 41.7341L96.3726 41.7341V38.3002H99.8065V40.5537Z" fill="black"/>
<path d="M10.5253 38.3002H7.09139V34.8663H10.5253V38.3002Z" fill="black"/>
<path d="M13.9592 38.3002H10.5253V34.8663H12.7788C13.1052 34.8663 13.3835 34.9815 13.6138 35.2117C13.844 35.4419 13.9592 35.7203 13.9592 36.0467V38.3002Z" fill="black"/>
<path d="M24.2609 38.3002H22.0074C21.681 38.3002 21.4026 38.185 21.1724 37.9548C20.9421 37.7245 20.827 37.4462 20.827 37.1198V36.0467C20.827 35.7203 20.9421 35.4419 21.1724 35.2117C21.4027 34.9815 21.681 34.8663 22.0074 34.8663H24.2609V38.3002Z" fill="black"/>
<path d="M26.5143 38.3002H24.2609V34.8663H26.5143C26.8407 34.8663 27.1191 34.9815 27.3493 35.2117C27.5796 35.4419 27.6948 35.7203 27.6948 36.0467V37.1198C27.6948 37.4462 27.5796 37.7245 27.3493 37.9548C27.1191 38.185 26.8407 38.3002 26.5143 38.3002Z" fill="black"/>
<path d="M34.5558 37.2003H34.5625V38.3002H31.1286V37.2003H31.1353C31.1309 37.1645 31.1286 37.1377 31.1286 37.1198V36.0467C31.1286 35.7203 31.2438 35.4419 31.4741 35.2117C31.7043 34.9815 31.9827 34.8663 32.309 34.8663H33.3821C33.7085 34.8663 33.9869 34.9815 34.2171 35.2117C34.4474 35.4419 34.5625 35.7203 34.5625 36.0467V37.1198C34.5625 37.1377 34.5604 37.1645 34.5558 37.2003Z" fill="black"/>
<path d="M44.8642 38.3002H41.4303L41.4303 36.0467C41.4303 35.7203 41.5455 35.4419 41.7757 35.2117C42.006 34.9815 42.2843 34.8663 42.6107 34.8663H44.8642V38.3002Z" fill="black"/>
<path d="M48.2981 38.3002L44.8642 38.3002V34.8663H48.2981V38.3002Z" fill="black"/>
<path d="M51.732 38.3002H48.2981V34.8663H51.732V38.3002Z" fill="black"/>
<path d="M55.1659 37.1198C55.1659 37.4462 55.0507 37.7245 54.8205 37.9548C54.5902 38.185 54.3119 38.3002 53.9855 38.3002H51.732V34.8663H55.1659V37.1198Z" fill="black"/>
<path d="M62.0337 38.3002H58.5998V34.8663H62.0337V38.3002Z" fill="black"/>
<path d="M72.3354 37.1198C72.3354 37.4462 72.2202 37.7245 71.9899 37.9548C71.7597 38.185 71.4814 38.3002 71.155 38.3002H70.0819C69.7555 38.3002 69.4771 38.185 69.2469 37.9548C69.0166 37.7245 68.9015 37.4462 68.9015 37.1198V36.0467C68.9015 36.0288 68.9037 36.0019 68.9082 35.9662H68.9015V34.8663H72.3354V35.9662H72.3287C72.3332 36.0019 72.3354 36.0288 72.3354 36.0467V37.1198Z" fill="black"/>
<path d="M79.1965 37.2003H79.2032V38.3002H75.7693V37.2003H75.776C75.7715 37.1645 75.7693 37.1377 75.7693 37.1198V36.0467C75.7693 35.7203 75.8844 35.4419 76.1147 35.2117C76.345 34.9815 76.6233 34.8663 76.9497 34.8663H78.0228C78.3491 34.8663 78.6275 34.9815 78.8577 35.2117C79.088 35.4419 79.2032 35.7203 79.2032 36.0467V37.1198C79.2032 37.1377 79.201 37.1645 79.1965 37.2003Z" fill="black"/>
<path d="M92.9387 36.0467C92.9387 35.7202 92.8235 35.4419 92.5933 35.2117C92.3631 34.9815 92.0848 34.8663 91.7583 34.8663H90.6852C90.3589 34.8663 90.0805 34.9815 89.8503 35.2117C89.62 35.4419 89.5048 35.7202 89.5048 36.0467V37.1198C89.5048 37.4461 89.62 37.7245 89.8503 37.9547C90.0806 38.185 90.3589 38.3002 90.6852 38.3002H91.7583C92.0848 38.3002 92.3631 38.185 92.5933 37.9548C92.8236 37.7245 92.9387 37.4461 92.9387 37.1198V36.0467Z" fill="black"/>
<path d="M99.8065 38.3002H96.3726V34.8663H99.8065V38.3002Z" fill="black"/>
<path d="M10.5186 33.7664H10.5253V34.8663H7.09139V33.7664H7.09809C7.09362 33.7306 7.09139 33.7038 7.09139 33.6859V32.6128C7.09139 32.2864 7.20653 32.008 7.4368 31.7778C7.66708 31.5476 7.9454 31.4324 8.27179 31.4324H9.34488C9.67127 31.4324 9.94963 31.5476 10.1799 31.7778C10.4101 32.008 10.5253 32.2864 10.5253 32.6128V33.6859C10.5253 33.7038 10.5231 33.7306 10.5186 33.7664Z" fill="black"/>
<path d="M17.3931 34.8663H15.1396C14.8132 34.8663 14.5348 34.7511 14.3046 34.5209C14.0744 34.2906 13.9592 34.0123 13.9592 33.6859V31.4324H17.3931V34.8663Z" fill="black"/>
<path d="M19.6466 34.8663H17.3931V31.4324H19.6466C19.973 31.4324 20.2513 31.5476 20.4815 31.7778C20.7118 32.008 20.827 32.2864 20.827 32.6128V33.6859C20.827 34.0123 20.7118 34.2906 20.4815 34.5209C20.2513 34.7511 19.973 34.8663 19.6466 34.8663Z" fill="black"/>
<path d="M37.9964 33.6859C37.9964 34.0123 37.8813 34.2906 37.651 34.5209C37.4208 34.7511 37.1424 34.8663 36.816 34.8663H35.7429C35.4165 34.8663 35.1382 34.7511 34.908 34.5209C34.6777 34.2906 34.5625 34.0123 34.5625 33.6859V32.6128C34.5625 32.5949 34.5648 32.568 34.5692 32.5323H34.5625V31.4324H37.9964V32.5323H37.9897C37.9943 32.568 37.9964 32.5949 37.9964 32.6128V33.6859Z" fill="black"/>
<path d="M48.2981 34.8663H44.8642V31.4324H48.2981V34.8663Z" fill="black"/>
<path d="M55.1659 34.8663H51.732L51.732 32.6128C51.732 32.2864 51.8471 32.008 52.0774 31.7778C52.3077 31.5476 52.586 31.4324 52.9124 31.4324H55.1659V34.8663Z" fill="black"/>
<path d="M58.5998 34.8663H55.1659V31.4324H58.5998V34.8663Z" fill="black"/>
<path d="M62.0337 34.8663H58.5998V31.4324H62.0337V34.8663Z" fill="black"/>
<path d="M65.4676 34.8663L62.0337 34.8663V31.4324H65.4676V34.8663Z" fill="black"/>
<path d="M68.9015 34.8663L65.4676 34.8663V31.4324H68.9015V34.8663Z" fill="black"/>
<path d="M72.3354 34.8663H68.9015V31.4324H72.3354V34.8663Z" fill="black"/>
<path d="M82.637 33.6859C82.637 34.0123 82.5219 34.2906 82.2916 34.5209C82.0614 34.7511 81.783 34.8663 81.4566 34.8663H80.3836C80.0572 34.8663 79.7788 34.7511 79.5486 34.5209C79.3183 34.2906 79.2032 34.0123 79.2032 33.6859V32.6128C79.2032 32.5949 79.2054 32.568 79.2099 32.5323H79.2032V31.4324H82.637V32.5323H82.6304C82.6349 32.568 82.637 32.5949 82.637 32.6128V33.6859Z" fill="black"/>
<path d="M96.3726 34.8663L94.1191 34.8663C93.7927 34.8663 93.5144 34.7511 93.2841 34.5209C93.0539 34.2906 92.9387 34.0123 92.9387 33.6859V32.6128C92.9387 32.2864 93.0539 32.008 93.2841 31.7778C93.5144 31.5476 93.7927 31.4324 94.1191 31.4324H96.3726V34.8663Z" fill="black"/>
<path d="M99.8065 34.8663H96.3726V31.4324H99.8065V34.8663Z" fill="black"/>
<path d="M3.6575 31.4324H1.404C1.07761 31.4324 0.79926 31.3172 0.569018 31.087C0.338775 30.8567 0.223602 30.5784 0.223602 30.252V29.1789C0.223602 28.8525 0.338741 28.5742 0.569018 28.3439C0.799295 28.1137 1.07761 27.9985 1.404 27.9985H3.6575V31.4324Z" fill="black"/>
<path d="M5.91099 31.4324H3.6575V27.9985H5.91099C6.23738 27.9985 6.51573 28.1137 6.74597 28.3439C6.97622 28.5742 7.09139 28.8525 7.09139 29.1789V30.252C7.09139 30.5784 6.97622 30.8567 6.74597 31.087C6.51573 31.3172 6.23738 31.4324 5.91099 31.4324Z" fill="black"/>
<path d="M13.9592 31.4324L11.7057 31.4324C11.3793 31.4324 11.1009 31.3172 10.8707 31.087C10.6405 30.8567 10.5253 30.5784 10.5253 30.252V29.1789C10.5253 28.8525 10.6404 28.5742 10.8707 28.3439C11.101 28.1137 11.3793 27.9985 11.7057 27.9985H13.9592V31.4324Z" fill="black"/>
<path d="M17.3931 31.4324H13.9592V27.9985H16.2127C16.5391 27.9985 16.8174 28.1137 17.0477 28.3439C17.2779 28.5742 17.3931 28.8525 17.3931 29.1789V31.4324Z" fill="black"/>
<path d="M24.2609 31.4324H22.0074C21.681 31.4324 21.4026 31.3172 21.1724 31.087C20.9421 30.8567 20.827 30.5784 20.827 30.252V29.1789C20.827 28.8525 20.9421 28.5742 21.1724 28.3439C21.4027 28.1137 21.681 27.9985 22.0074 27.9985H24.2609V31.4324Z" fill="black"/>
<path d="M26.5143 31.4324H24.2609V27.9985H26.5143C26.8407 27.9985 27.1191 28.1137 27.3493 28.3439C27.5796 28.5742 27.6948 28.8525 27.6948 29.1789V30.252C27.6948 30.5784 27.5796 30.8567 27.3493 31.087C27.1191 31.3172 26.8407 31.4324 26.5143 31.4324Z" fill="black"/>
<path d="M34.5625 31.4324L32.309 31.4324C31.9827 31.4324 31.7043 31.3172 31.4741 31.087C31.2438 30.8567 31.1286 30.5784 31.1286 30.252V27.9985H34.5625V31.4324Z" fill="black"/>
<path d="M37.9964 31.4324H34.5625V27.9985H37.9964V31.4324Z" fill="black"/>
<path d="M48.2981 31.4324H44.8642V27.9985H48.2981V31.4324Z" fill="black"/>
<path d="M62.027 30.3325H62.0337V31.4324H58.5998V30.3325H58.6065C58.602 30.2967 58.5998 30.2699 58.5998 30.252V29.1789C58.5998 28.8525 58.7149 28.5742 58.9452 28.3439C59.1755 28.1137 59.4538 27.9985 59.7802 27.9985H60.8533C61.1797 27.9985 61.458 28.1137 61.6883 28.3439C61.9185 28.5742 62.0337 28.8525 62.0337 29.1789V30.252C62.0337 30.2699 62.0315 30.2967 62.027 30.3325Z" fill="black"/>
<path d="M72.3354 31.4324H68.9015V27.9985H72.3354V31.4324Z" fill="black"/>
<path d="M75.7693 31.4324L72.3354 31.4324V27.9985H75.7693V31.4324Z" fill="black"/>
<path d="M79.2032 31.4324L75.7693 31.4324V27.9985H79.2032V31.4324Z" fill="black"/>
<path d="M82.637 31.4324H79.2032V27.9985H82.637V31.4324Z" fill="black"/>
<path d="M86.0709 31.4324L82.637 31.4324V27.9985H86.0709V31.4324Z" fill="black"/>
<path d="M88.3244 31.4324H86.0709V27.9985H88.3244C88.6508 27.9985 88.9292 28.1137 89.1594 28.3439C89.3897 28.5742 89.5048 28.8525 89.5048 29.1789V30.252C89.5048 30.5784 89.3897 30.8567 89.1594 31.087C88.9292 31.3172 88.6508 31.4324 88.3244 31.4324Z" fill="black"/>
<path d="M99.8065 31.4324H96.3726V27.9985H99.8065V31.4324Z" fill="black"/>
<path d="M31.1286 27.9985L28.8752 27.9985C28.5488 27.9985 28.2704 27.8834 28.0402 27.6531C27.8099 27.4228 27.6948 27.1445 27.6948 26.8181V24.5646H31.1286L31.1286 27.9985Z" fill="black"/>
<path d="M34.5625 27.9985H31.1286L31.1286 24.5646H34.5625V27.9985Z" fill="black"/>
<path d="M37.9964 27.9985H34.5625V24.5646H37.9964V27.9985Z" fill="black"/>
<path d="M41.4303 27.9985L37.9964 27.9985V24.5646H41.4303V27.9985Z" fill="black"/>
<path d="M44.8642 27.9985L41.4303 27.9985V24.5646H44.8642V27.9985Z" fill="black"/>
<path d="M48.2981 27.9985H44.8642V24.5646H48.2981V27.9985Z" fill="black"/>
<path d="M50.5516 27.9985L48.2981 27.9985V24.5646H50.5516C50.878 24.5646 51.1563 24.6798 51.3866 24.91C51.6168 25.1403 51.732 25.4186 51.732 25.745V26.8181C51.732 27.1445 51.6168 27.4228 51.3866 27.6531C51.1563 27.8833 50.878 27.9985 50.5516 27.9985Z" fill="black"/>
<path d="M58.5998 26.8181C58.5998 27.1445 58.4846 27.4228 58.2544 27.6531C58.0241 27.8833 57.7458 27.9985 57.4194 27.9985H56.3463C56.0199 27.9985 55.7416 27.8834 55.5113 27.6531C55.2811 27.4228 55.1659 27.1445 55.1659 26.8181V25.745C55.1659 25.7271 55.1681 25.7003 55.1726 25.6645H55.1659V24.5646H58.5998V25.6645H58.5931C58.5976 25.7003 58.5998 25.7271 58.5998 25.745V26.8181Z" fill="black"/>
<path d="M68.9015 27.9985L66.648 27.9985C66.3216 27.9985 66.0432 27.8834 65.813 27.6531C65.5828 27.4228 65.4676 27.1445 65.4676 26.8181V24.5646H68.9015V27.9985Z" fill="black"/>
<path d="M72.3354 27.9985H68.9015V24.5646H72.3354V27.9985Z" fill="black"/>
<path d="M86.0709 27.9985H82.637V24.5646H86.0709V27.9985Z" fill="black"/>
<path d="M99.8065 27.9985H96.3726V24.5646H99.8065V27.9985Z" fill="black"/>
<path d="M31.1286 24.5646H27.6948V22.3111C27.6948 21.9847 27.8099 21.7064 28.0402 21.4761C28.2704 21.2459 28.5488 21.1307 28.8752 21.1307H31.1286V24.5646Z" fill="black"/>
<path d="M34.5625 24.5646H31.1286V21.1307H34.5625V24.5646Z" fill="black"/>
<path d="M44.8575 23.4647H44.8642V24.5646H41.4303L41.4303 23.4647H41.437C41.4326 23.4289 41.4303 23.4021 41.4303 23.3842V22.3111C41.4303 21.9847 41.5455 21.7064 41.7757 21.4761C42.006 21.2459 42.2843 21.1307 42.6107 21.1307H43.6838C44.0102 21.1307 44.2886 21.2459 44.5188 21.4761C44.749 21.7064 44.8642 21.9847 44.8642 22.3111V23.3842C44.8642 23.4021 44.8621 23.4289 44.8575 23.4647Z" fill="black"/>
<path d="M58.5931 23.4647H58.5998V24.5646H55.1659V23.4647H55.1726C55.1681 23.4289 55.1659 23.4021 55.1659 23.3842V22.3111C55.1659 21.9847 55.281 21.7064 55.5113 21.4761C55.7416 21.2459 56.0199 21.1307 56.3463 21.1307H57.4194C57.7458 21.1307 58.0241 21.2459 58.2544 21.4761C58.4846 21.7064 58.5998 21.9847 58.5998 22.3111V23.3842C58.5998 23.4021 58.5976 23.4289 58.5931 23.4647Z" fill="black"/>
<path d="M68.9015 24.5646H65.4676V21.1307H68.9015V24.5646Z" fill="black"/>
<path d="M72.3354 24.5646H68.9015V21.1307H72.3354V24.5646Z" fill="black"/>
<path d="M79.2032 22.3111C79.2032 21.9846 79.0879 21.7064 78.8577 21.4761C78.6275 21.2459 78.3492 21.1307 78.0228 21.1307H76.9497C76.6233 21.1307 76.345 21.2459 76.1147 21.4761C75.8844 21.7064 75.7693 21.9846 75.7693 22.3111V23.3842C75.7693 23.7106 75.8844 23.9889 76.1147 24.2191C76.345 24.4494 76.6233 24.5646 76.9497 24.5646H78.0228C78.3493 24.5646 78.6276 24.4495 78.8577 24.2192C79.088 23.9889 79.2032 23.7106 79.2032 23.3842V22.3111Z" fill="black"/>
<path d="M86.0709 24.5646H82.637V21.1307H86.0709V24.5646Z" fill="black"/>
<path d="M89.5048 24.5646L86.0709 24.5646V21.1307H89.5048V24.5646Z" fill="black"/>
<path d="M91.7583 24.5646H89.5048V21.1307H91.7583C92.0847 21.1307 92.3631 21.2459 92.5933 21.4761C92.8236 21.7064 92.9387 21.9847 92.9387 22.3111V23.3842C92.9387 23.7106 92.8236 23.9889 92.5933 24.2192C92.3631 24.4494 92.0847 24.5646 91.7583 24.5646Z" fill="black"/>
<path d="M99.8065 24.5646H96.3726V21.1307H99.8065V24.5646Z" fill="black"/>
<path d="M34.5558 20.0308H34.5625V21.1307H31.1286L31.1286 20.0308H31.1353C31.1309 19.995 31.1286 19.9682 31.1286 19.9503V18.8772C31.1286 18.5508 31.2438 18.2725 31.4741 18.0422C31.7043 17.812 31.9827 17.6968 32.309 17.6968H33.3821C33.7085 17.6968 33.9869 17.812 34.2171 18.0422C34.4474 18.2725 34.5625 18.5508 34.5625 18.8772V19.9503C34.5625 19.9682 34.5604 19.995 34.5558 20.0308Z" fill="black"/>
<path d="M41.4303 18.8772C41.4303 18.5508 41.3151 18.2725 41.0849 18.0422C40.8547 17.812 40.5764 17.6968 40.2499 17.6968H39.1768C38.8505 17.6968 38.5721 17.812 38.3419 18.0422C38.1116 18.2725 37.9964 18.5508 37.9964 18.8772V19.9503C37.9964 20.2767 38.1116 20.555 38.3418 20.7853C38.5722 21.0155 38.8505 21.1307 39.1768 21.1307H40.2499C40.5764 21.1307 40.8547 21.0156 41.0849 20.7853C41.3152 20.555 41.4303 20.2767 41.4303 19.9503V18.8772Z" fill="black"/>
<path d="M51.732 19.9503C51.732 20.2767 51.6168 20.555 51.3866 20.7853C51.1563 21.0155 50.878 21.1307 50.5516 21.1307H49.4785C49.1521 21.1307 48.8738 21.0156 48.6435 20.7853C48.4133 20.555 48.2981 20.2767 48.2981 19.9503V18.8772C48.2981 18.8593 48.3003 18.8325 48.3048 18.7967H48.2981V17.6968H51.732V18.7967H51.7253C51.7298 18.8325 51.732 18.8593 51.732 18.8772V19.9503Z" fill="black"/>
<path d="M62.0337 18.8772C62.0337 18.5508 61.9185 18.2725 61.6883 18.0422C61.458 17.812 61.1797 17.6968 60.8533 17.6968H59.7802C59.4538 17.6968 59.1755 17.812 58.9452 18.0422C58.715 18.2725 58.5998 18.5508 58.5998 18.8772V19.9503C58.5998 20.2767 58.7149 20.555 58.9452 20.7853C59.1755 21.0155 59.4538 21.1307 59.7802 21.1307H60.8533C61.1798 21.1307 61.4581 21.0156 61.6883 20.7853C61.9185 20.555 62.0337 20.2767 62.0337 19.9503V18.8772Z" fill="black"/>
<path d="M68.9015 21.1307H65.4676V17.6968H68.9015V21.1307Z" fill="black"/>
<path d="M72.3354 21.1307H68.9015V17.6968H72.3354V21.1307Z" fill="black"/>
<path d="M86.0709 21.1307H82.637V17.6968H86.0709V21.1307Z" fill="black"/>
<path d="M96.3726 21.1307L94.1191 21.1307C93.7927 21.1307 93.5144 21.0156 93.2841 20.7853C93.0539 20.555 92.9387 20.2767 92.9387 19.9503V17.6968H96.3726V21.1307Z" fill="black"/>
<path d="M99.8065 21.1307H96.3726V17.6968H99.8065V21.1307Z" fill="black"/>
<path d="M31.1286 15.4433C31.1286 15.1169 31.0134 14.8386 30.7832 14.6083C30.553 14.3781 30.2747 14.2629 29.9482 14.2629H28.8752C28.5488 14.2629 28.2704 14.3781 28.0402 14.6083C27.8099 14.8386 27.6948 15.1169 27.6948 15.4433V16.5164C27.6948 16.8428 27.8099 17.1211 28.0402 17.3514C28.2705 17.5816 28.5488 17.6968 28.8752 17.6968H29.9482C30.2747 17.6968 30.5531 17.5817 30.7832 17.3514C31.0135 17.1211 31.1286 16.8428 31.1286 16.5164V15.4433Z" fill="black"/>
<path d="M37.9964 16.5164C37.9964 16.8428 37.8813 17.1212 37.651 17.3514C37.4208 17.5816 37.1424 17.6968 36.816 17.6968H35.7429C35.4165 17.6968 35.1382 17.5817 34.908 17.3514C34.6777 17.1211 34.5625 16.8428 34.5625 16.5164V15.4433C34.5625 15.4254 34.5648 15.3986 34.5692 15.3628H34.5625V14.2629H37.9964V15.3628H37.9897C37.9943 15.3986 37.9964 15.4254 37.9964 15.4433V16.5164Z" fill="black"/>
<path d="M44.8642 17.6968H42.6107C42.2843 17.6968 42.006 17.5817 41.7757 17.3514C41.5455 17.1211 41.4303 16.8428 41.4303 16.5164V14.2629H44.8642V17.6968Z" fill="black"/>
<path d="M48.2981 17.6968L44.8642 17.6968V14.2629H48.2981V17.6968Z" fill="black"/>
<path d="M51.732 17.6968H48.2981V14.2629H51.732V17.6968Z" fill="black"/>
<path d="M55.1659 17.6968L51.732 17.6968V14.2629H55.1659V17.6968Z" fill="black"/>
<path d="M57.4194 17.6968H55.1659V14.2629H57.4194C57.7458 14.2629 58.0241 14.3781 58.2544 14.6083C58.4846 14.8386 58.5998 15.1169 58.5998 15.4433V16.5164C58.5998 16.8428 58.4846 17.1212 58.2544 17.3514C58.0241 17.5816 57.7458 17.6968 57.4194 17.6968Z" fill="black"/>
<path d="M65.4676 17.6968L63.2141 17.6968C62.8877 17.6968 62.6093 17.5817 62.3791 17.3514C62.1489 17.1211 62.0337 16.8428 62.0337 16.5164V14.2629H65.4676L65.4676 17.6968Z" fill="black"/>
<path d="M68.9015 17.6968H65.4676L65.4676 14.2629H68.9015V17.6968Z" fill="black"/>
<path d="M72.3354 17.6968H68.9015V14.2629H72.3354V17.6968Z" fill="black"/>
<path d="M75.7693 17.6968L72.3354 17.6968V14.2629H75.7693V17.6968Z" fill="black"/>
<path d="M79.2032 17.6968H75.7693V14.2629H79.2032V17.6968Z" fill="black"/>
<path d="M82.637 17.6968L79.2032 17.6968V14.2629H82.637V17.6968Z" fill="black"/>
<path d="M86.0709 17.6968H82.637V14.2629H86.0709V17.6968Z" fill="black"/>
<path d="M88.3244 17.6968L86.0709 17.6968V14.2629H88.3244C88.6508 14.2629 88.9292 14.3781 89.1594 14.6083C89.3897 14.8386 89.5048 15.1169 89.5048 15.4433V16.5164C89.5048 16.8428 89.3897 17.1212 89.1594 17.3514C88.9292 17.5816 88.6508 17.6968 88.3244 17.6968Z" fill="black"/>
<path d="M96.3726 17.6968H92.9387V14.2629H96.3726V17.6968Z" fill="black"/>
<path d="M99.8065 17.6968H96.3726V14.2629H98.6261C98.9525 14.2629 99.2309 14.3781 99.4611 14.6083C99.6913 14.8386 99.8065 15.1169 99.8065 15.4433V17.6968Z" fill="black"/>
<path d="M34.5625 14.2629L32.309 14.2629C31.9827 14.2629 31.7043 14.1478 31.4741 13.9175C31.2438 13.6872 31.1286 13.4089 31.1286 13.0825V10.829H34.5625V14.2629Z" fill="black"/>
<path d="M37.9964 14.2629H34.5625V10.829H37.9964V14.2629Z" fill="black"/>
<path d="M44.8642 14.2629H41.4303V10.829H44.8642V14.2629Z" fill="black"/>
<path d="M48.2981 14.2629H44.8642V10.829H48.2981V14.2629Z" fill="black"/>
<path d="M62.0337 14.2629L59.7802 14.2629C59.4538 14.2629 59.1755 14.1478 58.9452 13.9175C58.715 13.6872 58.5998 13.4089 58.5998 13.0825V12.0094C58.5998 11.683 58.7149 11.4047 58.9452 11.1744C59.1755 10.9442 59.4538 10.829 59.7802 10.829H62.0337V14.2629Z" fill="black"/>
<path d="M65.4676 14.2629H62.0337V10.829H65.4676V14.2629Z" fill="black"/>
<path d="M72.3354 14.2629H68.9015V10.829H72.3354V14.2629Z" fill="black"/>
<path d="M96.3726 14.2629H92.9387V10.829H96.3726V14.2629Z" fill="black"/>
<path d="M34.5625 10.829H31.1286V7.39513H34.5625V10.829Z" fill="black"/>
<path d="M37.9964 10.829H34.5625V7.39513H37.9964V10.829Z" fill="black"/>
<path d="M41.4303 10.829H37.9964V7.39513H41.4303L41.4303 10.829Z" fill="black"/>
<path d="M44.8642 10.829H41.4303L41.4303 7.39513H44.8642V10.829Z" fill="black"/>
<path d="M48.2981 10.829H44.8642V7.39513H48.2981V10.829Z" fill="black"/>
<path d="M51.732 10.829L48.2981 10.829V7.39513H51.732V10.829Z" fill="black"/>
<path d="M55.1659 9.64862C55.1659 9.97501 55.0507 10.2534 54.8205 10.4836C54.5902 10.7138 54.3119 10.829 53.9855 10.829H51.732V7.39513H55.1659V9.64862Z" fill="black"/>
<path d="M65.4676 10.829H62.0337V8.57553C62.0337 8.24914 62.1488 7.97079 62.3791 7.74054C62.6094 7.5103 62.8877 7.39513 63.2141 7.39513H65.4676V10.829Z" fill="black"/>
<path d="M68.9015 10.829H65.4676V7.39513H68.9015V10.829Z" fill="black"/>
<path d="M72.3354 10.829H68.9015V7.39513H72.3354V10.829Z" fill="black"/>
<path d="M74.5889 10.829L72.3354 10.829V7.39513H74.5889C74.9153 7.39513 75.1936 7.5103 75.4238 7.74054C75.6541 7.97079 75.7693 8.24914 75.7693 8.57553V9.64862C75.7693 9.97501 75.6541 10.2534 75.4238 10.4836C75.1936 10.7138 74.9153 10.829 74.5889 10.829Z" fill="black"/>
<path d="M89.5048 10.829H87.2513C86.925 10.829 86.6466 10.7139 86.4164 10.4836C86.1861 10.2533 86.0709 9.97501 86.0709 9.64862V7.39513H89.5048V10.829Z" fill="black"/>
<path d="M92.9387 10.829L89.5048 10.829V7.39513H92.9387V10.829Z" fill="black"/>
<path d="M96.3726 10.829H92.9387V7.39513H96.3726V10.829Z" fill="black"/>
<path d="M99.8065 9.64862C99.8065 9.97501 99.6913 10.2534 99.4611 10.4836C99.2309 10.7138 98.9525 10.829 98.6261 10.829L96.3726 10.829V7.39513H99.8065V9.64862Z" fill="black"/>
<path d="M34.5625 7.39513H31.1286V3.96124H34.5625V7.39513Z" fill="black"/>
<path d="M51.732 7.39513H48.2981V3.96124H51.732V7.39513Z" fill="black"/>
<path d="M55.1659 7.39513H51.732V3.96124H55.1659V7.39513Z" fill="black"/>
<path d="M57.4194 7.39513L55.1659 7.39513V3.96124H57.4194C57.7458 3.96124 58.0241 4.07641 58.2544 4.30665C58.4846 4.53689 58.5998 4.81525 58.5998 5.14164V6.21473C58.5998 6.54112 58.4846 6.81947 58.2544 7.04971C58.0241 7.27996 57.7458 7.39513 57.4194 7.39513Z" fill="black"/>
<path d="M72.3354 7.39513H68.9015V3.96124H72.3354V7.39513Z" fill="black"/>
<path d="M82.637 5.14164C82.637 4.81518 82.5218 4.53689 82.2916 4.30665C82.0614 4.07644 81.7831 3.96124 81.4566 3.96124H80.3836C80.0572 3.96124 79.7788 4.07644 79.5486 4.30665C79.3183 4.53689 79.2032 4.81518 79.2032 5.14164V6.21473C79.2032 6.54109 79.3183 6.81944 79.5486 7.04968C79.7789 7.27996 80.0572 7.39513 80.3836 7.39513H81.4566C81.7831 7.39513 82.0615 7.27999 82.2916 7.04971C82.5219 6.8194 82.637 6.54109 82.637 6.21473V5.14164Z" fill="black"/>
<path d="M89.4981 6.29522H89.5048V7.39513H86.0709V6.29522H86.0776C86.0732 6.25944 86.0709 6.23262 86.0709 6.21473V5.14164C86.0709 4.81525 86.1861 4.53689 86.4164 4.30665C86.6466 4.07641 86.925 3.96124 87.2513 3.96124H88.3244C88.6508 3.96124 88.9292 4.07641 89.1594 4.30665C89.3897 4.53689 89.5048 4.81525 89.5048 5.14164V6.21473C89.5048 6.23262 89.5027 6.25944 89.4981 6.29522Z" fill="black"/>
<path d="M96.3726 7.39513H92.9387V3.96124H96.3726V7.39513Z" fill="black"/>
<path d="M99.8065 7.39513H96.3726V3.96124H98.6261C98.9525 3.96124 99.2309 4.07641 99.4611 4.30665C99.6913 4.53689 99.8065 4.81525 99.8065 5.14164V7.39513Z" fill="black"/>
<path d="M31.1286 3.96124L28.8752 3.96124C28.5488 3.96124 28.2704 3.8461 28.0402 3.61582C27.8099 3.38555 27.6948 3.10723 27.6948 2.78084V1.70774C27.6948 1.38135 27.8099 1.103 28.0402 0.872759C28.2704 0.642517 28.5488 0.527344 28.8752 0.527344H31.1286L31.1286 3.96124Z" fill="black"/>
<path d="M34.5625 3.96124H31.1286L31.1286 0.527344L34.5625 0.527344V3.96124Z" fill="black"/>
<path d="M37.9964 3.96124L34.5625 3.96124V0.527344H37.9964V3.96124Z" fill="black"/>
<path d="M40.2499 3.96124H37.9964V0.527344L40.2499 0.527344C40.5763 0.527344 40.8547 0.642517 41.0849 0.872759C41.3152 1.103 41.4303 1.38135 41.4303 1.70774V2.78084C41.4303 3.10723 41.3152 3.38558 41.0849 3.61582C40.8547 3.84607 40.5763 3.96124 40.2499 3.96124Z" fill="black"/>
<path d="M48.2981 3.96124L46.0446 3.96124C45.7182 3.96124 45.4399 3.8461 45.2096 3.61582C44.9794 3.38555 44.8642 3.10723 44.8642 2.78084V1.70774C44.8642 1.38135 44.9794 1.103 45.2096 0.872759C45.4399 0.642517 45.7182 0.527344 46.0446 0.527344H48.2981V3.96124Z" fill="black"/>
<path d="M51.732 3.96124H48.2981V0.527344H50.5516C50.878 0.527344 51.1563 0.642517 51.3866 0.872759C51.6168 1.103 51.732 1.38135 51.732 1.70774V3.96124Z" fill="black"/>
<path d="M72.3287 2.86133H72.3354V3.96124H68.9015V2.86133H68.9082C68.9037 2.82555 68.9015 2.79873 68.9015 2.78084V1.70774C68.9015 1.38135 69.0166 1.103 69.2469 0.872759C69.4772 0.642517 69.7555 0.527344 70.0819 0.527344H71.155C71.4814 0.527344 71.7597 0.642517 71.9899 0.872759C72.2202 1.103 72.3354 1.38135 72.3354 1.70774V2.78084C72.3354 2.79873 72.3332 2.82555 72.3287 2.86133Z" fill="black"/>
<path d="M79.2032 1.70774C79.2032 1.38128 79.0879 1.103 78.8577 0.872759C78.6275 0.642551 78.3492 0.527344 78.0228 0.527344H76.9497C76.6233 0.527344 76.345 0.642551 76.1147 0.872759C75.8844 1.103 75.7693 1.38128 75.7693 1.70774V2.78084C75.7693 3.10719 75.8844 3.38555 76.1147 3.61579C76.345 3.84606 76.6233 3.96124 76.9497 3.96124H78.0228C78.3493 3.96124 78.6276 3.8461 78.8577 3.61582C79.088 3.38551 79.2032 3.10719 79.2032 2.78084V1.70774Z" fill="black"/>
<path d="M86.0709 1.70774C86.0709 1.38128 85.9557 1.103 85.7255 0.872759C85.4953 0.642551 85.217 0.527344 84.8905 0.527344H83.8174C83.4911 0.527344 83.2127 0.642551 82.9825 0.872759C82.7522 1.103 82.637 1.38128 82.637 1.70774V2.78084C82.637 3.10719 82.7522 3.38555 82.9825 3.61579C83.2128 3.84606 83.4911 3.96124 83.8174 3.96124H84.8905C85.217 3.96124 85.4953 3.8461 85.7255 3.61582C85.9558 3.38551 86.0709 3.10719 86.0709 2.78084V1.70774Z" fill="black"/>
<path d="M96.3659 2.86133H96.3726V3.96124H92.9387V2.86133H92.9454C92.941 2.82555 92.9387 2.79873 92.9387 2.78084V1.70774C92.9387 1.38135 93.0539 1.103 93.2841 0.872759C93.5144 0.642517 93.7927 0.527344 94.1191 0.527344H95.1922C95.5186 0.527344 95.797 0.642517 96.0272 0.872759C96.2574 1.103 96.3726 1.38135 96.3726 1.70774V2.78084C96.3726 2.79873 96.3705 2.82555 96.3659 2.86133Z" fill="black"/>
<path d="M16.0543 100.108H8.43016C4.71448 100.108 1.56656 97.6534 0.560124 94.2981C0.456043 93.951 0.374797 93.5943 0.318309 93.2296C0.256053 92.8272 0.223603 92.4152 0.223603 91.9958V84.1907C0.223603 79.7152 3.90611 76.0757 8.43016 76.0757L16.0543 76.0759C20.5781 76.0759 24.2609 79.7154 24.2609 84.1909V91.9958C24.2609 96.4691 20.5783 100.108 16.0543 100.108ZM20.6553 84.1906C20.6553 81.7042 18.5914 79.6813 16.0533 79.6813L12.2422 79.6805L8.43112 79.6815C5.89303 79.6815 3.82919 81.7045 3.82919 84.1906V91.9958C3.82919 92.7724 4.03062 93.5036 4.38517 94.1426C4.7265 94.7572 5.20941 95.2858 5.79087 95.686C6.53843 96.2006 7.44872 96.5028 8.42992 96.5028L16.0543 96.5027C18.5914 96.5027 20.6553 94.481 20.6553 91.9958V84.1906Z" fill="black"/>
<path d="M91.6 100.108H83.9758C80.2601 100.108 77.1122 97.6534 76.1058 94.2981C76.0017 93.951 75.9205 93.5942 75.864 93.2296C75.8017 92.8272 75.7693 92.4152 75.7693 91.9958V84.1906C75.7693 79.7151 79.4518 76.0757 83.9758 76.0757L91.6 76.0759C96.1238 76.0759 99.8065 79.7154 99.8065 84.1909V91.9958C99.8065 96.4691 96.124 100.108 91.6 100.108ZM96.2009 84.1906C96.2009 81.7042 94.1371 79.6812 91.599 79.6812L87.7879 79.6805L83.9768 79.6815C81.4387 79.6815 79.3749 81.7045 79.3749 84.1906V91.9958C79.3749 92.7724 79.5763 93.5036 79.9308 94.1425C80.2722 94.7572 80.7551 95.2857 81.3365 95.686C82.0841 96.2006 82.9944 96.5027 83.9756 96.5027H91.6C94.1371 96.5027 96.2009 94.481 96.2009 91.9958V84.1906Z" fill="black"/>
<path d="M16.0543 24.5627H8.43016C4.71448 24.5627 1.56656 22.1078 0.560124 18.7524C0.456043 18.4053 0.374797 18.0486 0.318309 17.6839C0.256053 17.2816 0.223602 16.8696 0.223602 16.4501V8.64497C0.223602 4.16947 3.90611 0.529989 8.43016 0.529989L16.0543 0.530229C20.5781 0.530229 24.2609 4.16971 24.2609 8.64521V16.4501C24.2609 20.9234 20.5783 24.5627 16.0543 24.5627ZM20.6553 8.64497C20.6553 6.15855 18.5914 4.13558 16.0533 4.13558L12.2422 4.13486L8.43112 4.13582C5.89303 4.13582 3.82919 6.15879 3.82919 8.64497V16.4501C3.82919 17.2267 4.03062 17.958 4.38517 18.5969C4.7265 19.2115 5.20941 19.7401 5.79087 20.1403C6.53843 20.6549 7.44872 20.9571 8.42992 20.9571H16.0543C18.5914 20.9571 20.6553 18.9353 20.6553 16.4501V8.64497Z" fill="black"/>
<path d="M9.909 82.9408C8.35448 82.9408 7.08995 84.1803 7.08995 85.7025V90.4822C7.08995 90.9578 7.21357 91.4053 7.43001 91.7968C7.63903 92.1737 7.93489 92.4976 8.29123 92.7419C8.74893 93.0569 9.30687 93.2425 9.90746 93.2425H14.5769C16.13 93.2425 17.3945 92.0044 17.3945 90.4823V85.7026C17.3945 84.1805 16.1301 82.9409 14.5769 82.9409L9.909 82.9408Z" fill="black"/>
<path d="M85.4547 82.9408C83.9001 82.9408 82.6356 84.1803 82.6356 85.7025V90.4822C82.6356 90.9578 82.7592 91.4053 82.9757 91.7968C83.1847 92.1737 83.4806 92.4976 83.8369 92.7419C84.2946 93.0569 84.8525 93.2425 85.4531 93.2425H90.1226C91.6756 93.2425 92.9402 92.0044 92.9402 90.4823V85.7026C92.9402 84.1805 91.6757 82.9409 90.1226 82.9409L85.4547 82.9408Z" fill="black"/>
<path d="M9.909 7.39513C8.35448 7.39513 7.08995 8.63463 7.08995 10.1568V14.9366C7.08995 15.4121 7.21357 15.8596 7.43001 16.2512C7.63903 16.628 7.93489 16.9519 8.29123 17.1963C8.74893 17.5113 9.30687 17.6968 9.90746 17.6968H14.5769C16.13 17.6968 17.3945 16.4588 17.3945 14.9367V10.1569C17.3945 8.63483 16.1301 7.39523 14.5769 7.39523L9.909 7.39513Z" fill="black"/>
</svg>
